<?xml version="1.0" encoding="UTF-8"?>
<svg width="60px" height="60px" viewBox="0 0 60 60" version="1.1" xmlns="http://www.w3.org/2000/svg" xmlns:xlink="http://www.w3.org/1999/xlink">
    <!-- Generator: Sketch 55.1 (78136) - https://sketchapp.com -->
    <title>Group 14</title>
    <desc>Created with Sketch.</desc>
    <defs>
        <polygon id="path-1" points="0.545272727 0.271334615 9.99981818 0.271334615 9.99981818 47 0.545272727 47"></polygon>
        <polygon id="path-3" points="0 60 60 60 60 0 0 0"></polygon>
    </defs>
    <g id="Page-1" stroke="none" stroke-width="1" fill="none" fill-rule="evenodd">
        <g id="Artboard" transform="translate(-432.000000, -69.000000)">
            <g id="Group-14" transform="translate(432.000000, 69.000000)">
                <path d="M1.82495345,58.1818182 L1.82495345,1.81818182 L31.8454376,1.81818182 L31.8454376,14.6363636 C31.8454376,15.1818182 32.2104283,15.5454545 32.7579143,15.5454545 L47.1750466,15.5454545 L47.1750466,58.1818182 L1.82495345,58.1818182 Z M33.6703911,2.90909091 L45.7150838,13.6363636 L33.6703911,13.6363636 L33.6703911,2.90909091 Z M48.726257,13.9090909 L33.3054004,0.272727273 C33.2141527,0.0909090909 32.9404097,0 32.7579143,0 L0.912476723,0 C0.364990689,0 0,0.363636364 0,0.909090909 L0,59.0909091 C0,59.6363636 0.364990689,60 0.912476723,60 L48.0875233,60 C48.6350093,60 49,59.6363636 49,59.0909091 L49,14.6363636 C49,14.3636364 48.8175047,14.0909091 48.726257,13.9090909 L48.726257,13.9090909 Z" id="Fill-1" fill="#3D4562"></path>
                <g id="Group-5" transform="translate(50.000000, 13.000000)">
                    <mask id="mask-2" fill="white">
                        <use xlink:href="#path-1"></use>
                    </mask>
                    <g id="Clip-4"></g>
                    <path d="M5.27254545,42.6617192 L2.63709091,33.0800462 L7.90890909,33.0800462 L5.27254545,42.6617192 Z M5.27254545,2.07902692 C6.90890909,2.07902692 8.18163636,3.34441154 8.18163636,4.97133462 L8.18163636,8.94825769 L2.36345455,8.94825769 L2.36345455,4.97133462 C2.36345455,3.34441154 3.72709091,2.07902692 5.27254545,2.07902692 L5.27254545,2.07902692 Z M2.36345455,31.1828731 L8.18163636,31.1828731 L8.18163636,10.6655654 L2.36345455,10.6655654 L2.36345455,31.1828731 Z M5.27254545,0.271334615 C2.63709091,0.271334615 0.545272727,2.35018077 0.545272727,4.97133462 L0.545272727,32.1762 L0.545272727,32.4482577 L4.36345455,46.3674885 C4.45527273,46.7290269 4.818,47.0001808 5.27254545,47.0001808 C5.72709091,47.0001808 5.99981818,46.7290269 6.18163636,46.3674885 L9.99981818,32.3578731 L9.99981818,32.0867192 L9.99981818,4.88095 C9.99981818,2.35018077 7.90890909,0.271334615 5.27254545,0.271334615 L5.27254545,0.271334615 Z" id="Fill-3" fill="#3D4562" mask="url(#mask-2)"></path>
                </g>
                <path d="M4.92664093,7 L27.0733591,7 C27.6293436,7 28,6.6 28,6 C28,5.4 27.6293436,5 27.0733591,5 L4.92664093,5 C4.37065637,5 4,5.4 4,6 C4,6.6 4.46332046,7 4.92664093,7" id="Fill-6" fill="#3D4562"></path>
                <path d="M4.92664093,12 L27.0733591,12 C27.6293436,12 28,11.6 28,11 C28,10.4 27.6293436,10 27.0733591,10 L4.92664093,10 C4.37065637,10 4,10.4 4,11 C4,11.5 4.46332046,12 4.92664093,12" id="Fill-8" fill="#3D4562"></path>
                <path d="M4.92664093,17 L27.0733591,17 C27.6293436,17 28,16.6 28,16 C28,15.4 27.6293436,15 27.0733591,15 L4.92664093,15 C4.37065637,15 4,15.4 4,16 C4,16.6 4.46332046,17 4.92664093,17" id="Fill-10" fill="#3D4562"></path>
                <mask id="mask-4" fill="white">
                    <use xlink:href="#path-3"></use>
                </mask>
                <g id="Clip-13"></g>
                <path d="M16.6189376,54.172043 L42.1986143,54.172043 L42.1986143,48.2311828 L16.6189376,48.2311828 L16.6189376,54.172043 Z M6.80138568,54.172043 L14.817552,54.172043 L14.817552,48.2311828 L6.80138568,48.2311828 L6.80138568,54.172043 Z M6.80138568,29.7688172 L14.817552,29.7688172 L14.817552,23.827957 L6.80138568,23.827957 L6.80138568,29.7688172 Z M16.6189376,29.7688172 L42.1986143,29.7688172 L42.1986143,23.827957 L16.6189376,23.827957 L16.6189376,29.7688172 Z M16.6189376,46.4032258 L42.1986143,46.4032258 L42.1986143,39.9139785 L16.6189376,39.9139785 L16.6189376,46.4032258 Z M6.80138568,46.4032258 L14.817552,46.4032258 L14.817552,39.9139785 L6.80138568,39.9139785 L6.80138568,46.4032258 Z M16.6189376,38.0860215 L42.1986143,38.0860215 L42.1986143,31.5967742 L16.6189376,31.5967742 L16.6189376,38.0860215 Z M6.80138568,38.0860215 L14.817552,38.0860215 L14.817552,31.5967742 L6.80138568,31.5967742 L6.80138568,38.0860215 Z M43.0993072,22 L5.90069284,22 C5.36027714,22 5,22.3655914 5,22.9139785 L5,55.0860215 C5,55.6344086 5.36027714,56 5.90069284,56 L43.0993072,56 C43.6397229,56 44,55.6344086 44,55.0860215 L44,22.9139785 C44,22.4569892 43.5496536,22 43.0993072,22 L43.0993072,22 Z" id="Fill-12" fill="#3D4562" mask="url(#mask-4)"></path>
            </g>
        </g>
    </g>
</svg>