<?xml version="1.0" encoding="UTF-8"?>
<svg width="13px" height="7px" viewBox="0 0 13 7" version="1.1" xmlns="http://www.w3.org/2000/svg" xmlns:xlink="http://www.w3.org/1999/xlink">
    <!-- Generator: Sketch 55.1 (78136) - https://sketchapp.com -->
    <title>arrow-down</title>
    <desc>Created with Sketch.</desc>
    <defs>
        <polygon id="path-1" points="0 7.14805576e-16 7 7.14805576e-16 7 13 0 13"></polygon>
    </defs>
    <g id="Page-1" stroke="none" stroke-width="1" fill="none" fill-rule="evenodd">
        <g id="arrow-down">
            <g id="Group-3" transform="translate(6.500000, 3.500000) rotate(90.000000) translate(-6.500000, -3.500000) translate(3.000000, -3.000000)">
                <g id="Fill-1-Clipped">
                    <mask id="mask-2" fill="white">
                        <use xlink:href="#path-1"></use>
                    </mask>
                    <g id="path-1"></g>
                    <path d="M0.997375328,13 C0.444444444,12.9961957 0,12.5092545 0,11.9081864 C0.00349956256,11.6228693 0.108486439,11.3451606 0.290463692,11.1435365 L4.58792651,6.47194381 L0.290463692,1.79654694 C-0.0664916885,1.3400395 -0.0209973753,0.651474139 0.402449693,0.259638599 C0.776902887,-0.0865461994 1.32983377,-0.0865461994 1.70428697,0.259638599 L6.70866141,5.70348965 C7.09711287,6.12575901 7.09711287,6.81432439 6.70866141,7.23659376 L1.70428697,12.6804448 C1.51531059,12.882069 1.26334208,13 0.997375328,13" id="Fill-1" fill="#3D4562" fill-rule="nonzero" mask="url(#mask-2)"></path>
                </g>
            </g>
        </g>
    </g>
</svg>