<?xml version="1.0" encoding="UTF-8"?>
<svg width="28px" height="39px" viewBox="0 0 28 39" version="1.1" xmlns="http://www.w3.org/2000/svg" xmlns:xlink="http://www.w3.org/1999/xlink">
    <!-- Generator: Sketch 55.1 (78136) - https://sketchapp.com -->
    <title>Group 6</title>
    <desc>Created with Sketch.</desc>
    <defs>
        <polygon id="path-1" points="0.00015 0.334146384 27.6805 0.334146384 27.6805 28 0.00015 28"></polygon>
    </defs>
    <g id="Page-1" stroke="none" stroke-width="1" fill="none" fill-rule="evenodd">
        <g id="Artboard" transform="translate(-321.000000, -269.000000)">
            <g id="Group-6" transform="translate(321.000000, 269.000000)">
                <path d="M13.5,1.23695574 C15.8502159,1.23695574 17.7630443,3.14928931 17.7630443,5.5 C17.7630443,7.85071069 15.8502159,9.76304426 13.5,9.76304426 C11.1492893,9.76304426 9.23695574,7.85071069 9.23695574,5.5 C9.23695574,3.14928931 11.1492893,1.23695574 13.5,1.23695574 M13.5,11 C16.5325207,11 19,8.53301547 19,5.5 C19,2.46747931 16.5325207,0 13.5,0 C10.4674793,0 8,2.46747931 8,5.5 C8,8.53301547 10.4674793,11 13.5,11" id="Fill-1" fill="#FFFFFF"></path>
                <g id="Group-5" transform="translate(0.000000, 11.000000)">
                    <mask id="mask-2" fill="white">
                        <use xlink:href="#path-1"></use>
                    </mask>
                    <g id="Clip-4"></g>
                    <path d="M26.43065,26.7719298 L19.56415,26.7719298 L19.56415,26.2964211 C19.57015,26.2340351 19.57665,26.1716491 19.57665,26.1092632 L19.57665,17.5049123 L21.07115,17.5049123 L24.90715,17.5049123 C24.91265,17.5054035 24.91765,17.5083509 24.92315,17.5083509 C24.92865,17.5083509 24.93315,17.5054035 24.93865,17.5049123 L26.43065,17.5049123 L26.43065,26.7719298 Z M17.83665,26.7650526 L14.48765,26.7650526 L14.48765,21.2313684 C14.48765,20.8914386 14.20765,20.6173333 13.86265,20.6173333 C13.51715,20.6173333 13.23765,20.8914386 13.23765,21.2313684 L13.23765,26.7650526 L9.89015,26.7650526 C9.62415,26.7650526 9.39965,26.4649123 9.39965,26.1092632 L9.39965,16.7813333 C9.39965,16.7788772 9.39815,16.7764211 9.39815,16.7739649 L9.39815,15.0301053 L18.32615,15.0301053 L18.32615,16.7788772 C18.32615,16.7803509 18.32665,16.7813333 18.32665,16.7823158 L18.32665,16.8270175 C18.32465,16.8491228 18.31415,16.8682807 18.31415,16.8908772 L18.31415,26.229614 C18.27215,26.5307368 18.06615,26.7650526 17.83665,26.7650526 L17.83665,26.7650526 Z M8.11715,26.7719298 L1.25015,26.7719298 L1.25015,17.5049123 L2.75765,17.5049123 L6.59215,17.5049123 C6.59765,17.5054035 6.60265,17.5083509 6.60815,17.5083509 C6.61365,17.5083509 6.61815,17.5054035 6.62365,17.5049123 L8.11715,17.5049123 L8.11715,26.7719298 Z M3.38265,12.6618947 C3.38265,12.3234386 3.51965,12.0002105 3.76415,11.7550877 C3.97315,11.5492632 4.25115,11.4200702 4.54665,11.3905965 C5.30615,11.318386 5.98465,11.9117895 5.98415028,12.6618947 L5.98415028,16.2768421 L3.38265,16.2768421 L3.38265,12.6618947 Z M5.10815,7.61403509 C5.10815,4.84547368 6.71615,2.41192982 8.98515,1.65789474 C10.26165,3.28680702 12.06765,4.2122807 14.00415,4.2122807 C15.90215,4.2122807 17.68215,3.31873684 18.95215,1.74435088 C21.13015,2.57894737 22.61815,4.92750877 22.61815,7.61403509 L22.61815,10.1797193 C22.59415,10.1831579 22.57165,10.1915088 22.54815,10.1954386 C22.49665,10.2047719 22.44665,10.2180351 22.39615,10.2303158 C22.29615,10.2538947 22.19865,10.282386 22.10315,10.3177544 C22.05165,10.3364211 22.00165,10.3565614 21.95165,10.3781754 C21.85615,10.4209123 21.76365,10.4710175 21.67315,10.5255439 C21.63165,10.5505965 21.58915,10.5722105 21.54915,10.5997193 C21.42265,10.6861754 21.30115,10.7814737 21.18915,10.8910175 C20.71065,11.3709474 20.44615,12.0002105 20.44615,12.6618947 L20.44615,16.1672982 L19.57615,16.1672982 L19.57615,9.96259649 C19.57615,9.62364912 19.29615,9.3485614 18.95115,9.3485614 C18.60615,9.3485614 18.32615,9.62364912 18.32615,9.96259649 L18.32615,13.8020351 L9.39815,13.8020351 L9.39815,9.96259649 C9.39815,9.62364912 9.11815,9.3485614 8.77315,9.3485614 C8.42815,9.3485614 8.14815,9.62364912 8.14815,9.96259649 L8.14815,16.1672982 L7.23415,16.1672982 L7.23415,12.6618947 C7.23415,12.522386 7.21915,12.3863158 7.19665,12.253193 C7.19215,12.2286316 7.18915,12.2035789 7.18415,12.1795088 C7.15965,12.0542456 7.12465,11.9329123 7.08165,11.8150175 C7.07165,11.788 7.06065,11.7619649 7.04965,11.7359298 C7.00265,11.6195088 6.94915,11.5060351 6.88515,11.3989474 C6.87565,11.3827368 6.86415,11.3684912 6.85415,11.3522807 C6.79515,11.2589474 6.73015,11.1700351 6.65965,11.0850526 C6.63915,11.0604912 6.62015,11.0354386 6.59865,11.0113684 C6.52165,10.9254035 6.43815,10.8453333 6.35015,10.7701754 C6.32015,10.7446316 6.28965,10.7205614 6.25865,10.696 C6.16765,10.6257544 6.07365,10.5599298 5.97365,10.5014737 C5.94315,10.4842807 5.91115,10.4695439 5.88015,10.4533333 C5.79565,10.4091228 5.70915,10.3693333 5.61965,10.3349474 C5.58315,10.3202105 5.54815,10.3049825 5.51065,10.2922105 C5.40315,10.2553684 5.29165,10.2278596 5.17765,10.2057544 C5.15415,10.2013333 5.13215,10.192 5.10815,10.1880702 L5.10815,7.61403509 Z M24.29815,12.6618947 L24.29815,16.2768421 L21.69615,16.2768421 L21.69615,12.6618947 C21.69615,12.3234386 21.83365,12.0002105 22.07765,11.7555789 C22.14415,11.6897544 22.21915,11.6332632 22.29815,11.5831579 C22.32065,11.5689123 22.34565,11.5585965 22.36915,11.5458246 C22.42365,11.5153684 22.48015,11.4878596 22.53815,11.4657544 C22.58015,11.4500351 22.62365,11.4382456 22.66715,11.4269474 C22.70565,11.4166316 22.74415,11.4077895 22.78315,11.4009123 C22.83365,11.3930526 22.88515,11.3886316 22.93715,11.3861754 C23.00365,11.3842239 23.06965,11.3812632 23.13415,11.3915789 C23.14515,11.3930526 23.15365,11.3935439 23.16665,11.3955088 C23.81165,11.4741053 24.29815,12.018386 24.29815,12.6618947 L24.29815,12.6618947 Z M27.05565,16.2768421 L25.54815,16.2768421 L25.54815,12.6618947 C25.54815,11.5841404 24.84715,10.6527719 23.86815,10.3079298 L23.86815,7.61403509 C23.86815,4.22112281 21.82365,1.26736842 18.89715,0.429824561 C18.63965,0.356140351 18.36265,0.451929825 18.20965,0.668561404 C17.16565,2.13978947 15.63315,2.98421053 14.00415,2.98421053 C12.34815,2.98421053 10.79815,2.11621053 9.75115,0.60322807 C9.60465,0.391508772 9.34065,0.290807018 9.08665,0.351719298 C6.05715,1.07284211 3.85815,4.12680702 3.85815,7.61403509 L3.85815,10.297614 C3.49315,10.4209123 3.15365,10.6178947 2.87615,10.8910175 C2.39665,11.3709474 2.13265,11.9997193 2.13265,12.6618947 L2.13265,16.2768421 L0.62515,16.2768421 C0.27965,16.2768421 0.00015,16.5519298 0.00015,16.8908772 L0.00015,27.3859649 C0.00015,27.7249123 0.27965,28 0.62515,28 L8.74215,28 C8.91165,28 9.06515,27.9322105 9.17765,27.8246316 C9.39565,27.9307368 9.63565,27.9931228 9.89015,27.9931228 L13.84465,27.9931228 C13.85065,27.993614 13.85615,27.9970526 13.86265,27.9970526 C13.86865,27.9970526 13.87415,27.993614 13.88065,27.9931228 L17.83665,27.9931228 C18.07915,27.9931228 18.30915,27.9346667 18.52065,27.8359298 C18.63165,27.9356491 18.77615,28 18.93915,28 L27.05565,28 C27.40065,28 27.68065,27.7249123 27.68065,27.3859649 L27.68065,16.8908772 C27.68065,16.5519298 27.40065,16.2768421 27.05565,16.2768421 L27.05565,16.2768421 Z" id="Fill-3" fill="#FFFFFF" mask="url(#mask-2)"></path>
                </g>
            </g>
        </g>
    </g>
</svg>