<?xml version="1.0" encoding="UTF-8"?>
<svg width="55px" height="62px" viewBox="0 0 55 62" version="1.1" xmlns="http://www.w3.org/2000/svg" xmlns:xlink="http://www.w3.org/1999/xlink">
    <!-- Generator: Sketch 55.1 (78136) - https://sketchapp.com -->
    <title>Group 25</title>
    <desc>Created with Sketch.</desc>
    <defs>
        <polygon id="path-1" points="0 62 55.3717701 62 55.3717701 0.377113402 0 0.377113402"></polygon>
    </defs>
    <g id="Page-1" stroke="none" stroke-width="1" fill="none" fill-rule="evenodd">
        <g id="Artboard" transform="translate(-349.000000, -70.000000)">
            <g id="Group-25" transform="translate(349.000000, 70.000000)">
                <path d="M35,56.9193248 L40.0802122,62 L55,47.0806752 L49.9204084,42 L35,56.9193248 Z M36.7550501,56.9193248 L49.9204084,43.7549957 L53.2455705,47.0806752 L40.0802122,60.2450043 L36.7550501,56.9193248 Z" id="Fill-1" fill="#3D4562"></path>
                <g id="Group-24">
                    <path d="M5.51149425,1.65552784 L28.1071724,1.65552784 L28.1071724,10.7835897 L37.2988966,10.7835897 L37.2988966,16.8410536 L35.9697011,16.1175072 C33.2771954,14.6665794 30.0188966,15.8241258 28.7643678,18.4594454 C28.0003218,20.0752804 28.14,21.8656103 28.9883678,23.2839402 L22.2896092,23.2839402 L22.2896092,24.5622907 L30.0774713,24.5622907 C30.3967356,24.833301 30.7494713,25.0755485 31.1434023,25.2711361 L37.2988966,28.3423732 L37.2988966,43.7247649 L5.51149425,43.7247649 L5.51149425,1.65552784 Z M29.3945287,2.55932165 L36.3893793,9.50523918 L29.3945287,9.50523918 L29.3945287,2.55932165 Z M47.909931,23.5523938 L47.909931,39.1731979 L32.6837241,54.910332 L21.9709885,45.0031155 L38.5862529,45.0031155 L38.5862529,27.5542701 L31.7207816,24.1289299 C29.8393103,23.191899 29.0353563,20.8927856 29.9287816,19.0040227 C30.8653333,17.0353629 33.3106667,16.1411567 35.3530575,17.239899 L37.6561379,18.4926825 L47.909931,23.5523938 Z M32.733931,56.7038577 L49.1972874,39.687734 L49.1972874,22.7604557 L38.5862529,17.5256103 L38.5862529,9.8791567 L29.0173333,0.37717732 L4.22413793,0.37717732 L4.22413793,45.0031155 L20.0817931,45.0031155 L32.733931,56.7038577 Z" id="Fill-2" fill="#3D4562"></path>
                    <mask id="mask-2" fill="white">
                        <use xlink:href="#path-1"></use>
                    </mask>
                    <g id="Clip-5"></g>
                    <polygon id="Fill-4" fill="#3D4562" mask="url(#mask-2)" points="25.7947586 34.3441649 31.5621149 34.3441649 31.5621149 33.0658144 25.7947586 33.0658144"></polygon>
                    <polygon id="Fill-6" fill="#3D4562" mask="url(#mask-2)" points="9.44404598 34.3441649 22.7031724 34.3441649 22.7031724 33.0658144 9.44404598 33.0658144"></polygon>
                    <polygon id="Fill-7" fill="#3D4562" mask="url(#mask-2)" points="17.4951724 29.347732 31.5627586 29.347732 31.5627586 28.0693814 17.4951724 28.0693814"></polygon>
                    <polygon id="Fill-8" fill="#3D4562" mask="url(#mask-2)" points="9.44404598 29.347732 14.4962759 29.347732 14.4962759 28.0693814 9.44404598 28.0693814"></polygon>
                    <polygon id="Fill-9" fill="#3D4562" mask="url(#mask-2)" points="17.4951724 39.3412371 31.5627586 39.3412371 31.5627586 38.0628866 17.4951724 38.0628866"></polygon>
                    <polygon id="Fill-10" fill="#3D4562" mask="url(#mask-2)" points="9.44404598 39.3412371 15.2062529 39.3412371 15.2062529 38.0628866 9.44404598 38.0628866"></polygon>
                    <polygon id="Fill-11" fill="#3D4562" mask="url(#mask-2)" points="9.44404598 24.5622268 19.3097011 24.5622268 19.3097011 23.2838763 9.44404598 23.2838763"></polygon>
                    <path d="M16.480092,5.54363093 C20.0048736,5.54363093 22.8718161,8.3911567 22.8718161,11.8912804 C22.8718161,15.3907649 20.0048736,18.2382907 16.480092,18.2382907 C12.9553103,18.2382907 10.0877241,15.3907649 10.0877241,11.8912804 C10.0877241,8.3911567 12.9553103,5.54363093 16.480092,5.54363093 M16.480092,19.5166412 C20.7142069,19.5166412 24.1591724,16.0957753 24.1591724,11.8912804 C24.1591724,7.68614639 20.7142069,4.26528041 16.480092,4.26528041 C12.2453333,4.26528041 8.80036782,7.68614639 8.80036782,11.8912804 C8.80036782,16.0957753 12.2453333,19.5166412 16.480092,19.5166412" id="Fill-12" fill="#3D4562" mask="url(#mask-2)"></path>
                    <path d="M16.480092,14.4178124 C15.9535632,14.4178124 15.5248736,13.9921216 15.5248736,13.4699155 L14.2375172,13.4699155 C14.2375172,14.4740598 14.9146667,15.3145753 15.8364138,15.5913381 L15.8364138,16.7744515 L17.1237701,16.7744515 L17.1237701,15.5913381 C18.0455172,15.3145753 18.722023,14.4740598 18.722023,13.4699155 C18.722023,12.2420598 17.7165977,11.2430289 16.480092,11.2430289 C15.9535632,11.2430289 15.5248736,10.8173381 15.5248736,10.2944928 C15.5248736,9.77164742 15.9535632,9.3459567 16.480092,9.3459567 C17.0066207,9.3459567 17.4346667,9.77164742 17.4346667,10.2944928 L18.722023,10.2944928 C18.722023,9.29098763 18.0455172,8.44983299 17.1237701,8.17243093 L17.1237701,7.00785361 L15.8364138,7.00785361 L15.8364138,8.17243093 C14.9146667,8.44983299 14.2375172,9.29098763 14.2375172,10.2944928 C14.2375172,11.5223485 15.2435862,12.5213794 16.480092,12.5213794 C17.0066207,12.5213794 17.4346667,12.9464309 17.4346667,13.4699155 C17.4346667,13.9921216 17.0066207,14.4178124 16.480092,14.4178124" id="Fill-13" fill="#3D4562" mask="url(#mask-2)"></path>
                    <polygon id="Fill-14" fill="#3D4562" mask="url(#mask-2)" points="28.6295172 55.3437567 27.7463908 56.2743959 22.9657931 51.8040041 23.8482759 50.8733649"></polygon>
                    <polygon id="Fill-15" fill="#3D4562" mask="url(#mask-2)" points="22.7333609 49.8321485 21.8508782 50.7627876 20.0646713 49.0926227 20.947154 48.1619835"></polygon>
                    <polygon id="Fill-16" fill="#3D4562" mask="url(#mask-2)" points="51.2972874 36.9110928 52.5846437 36.9110928 52.5846437 29.5215876 51.2972874 29.5215876"></polygon>
                    <polygon id="Fill-17" fill="#3D4562" mask="url(#mask-2)" points="51.2972874 27.4097526 52.5846437 27.4097526 52.5846437 24.5660619 51.2972874 24.5660619"></polygon>
                    <polygon id="Fill-18" fill="#3D4562" mask="url(#mask-2)" points="0 38.7020619 1.28735632 38.7020619 1.28735632 14.3226392 0 14.3226392"></polygon>
                    <polygon id="Fill-19" fill="#3D4562" mask="url(#mask-2)" points="0 10.6160619 1.28735632 10.6160619 1.28735632 7.00791753 0 7.00791753"></polygon>
                    <polygon id="Fill-20" fill="#3D4562" mask="url(#mask-2)" points="36.3102713 2.69265361 39.6612598 6.20811753 38.7266391 7.08698351 35.3756506 3.57151959"></polygon>
                    <polygon id="Fill-21" fill="#3D4562" mask="url(#mask-2)" points="34.5232276 2.67891134 33.3568828 1.4555299 34.2927908 0.576663918 35.458492 1.80004536"></polygon>
                    <polygon id="Fill-22" fill="#3D4562" mask="url(#mask-2)" points="45.1979862 59.5283732 50.4845149 54.2788268 51.3946759 55.1826206 46.1081471 60.432167"></polygon>
                    <polygon id="Fill-23" fill="#3D4562" mask="url(#mask-2)" points="54.4483494 52.1522268 52.835292 53.754 51.925131 52.8502062 53.5381885 51.248433"></polygon>
                </g>
            </g>
        </g>
    </g>
</svg>