<?xml version="1.0" encoding="UTF-8"?>
<svg width="20px" height="12px" viewBox="0 0 20 12" version="1.1" xmlns="http://www.w3.org/2000/svg" xmlns:xlink="http://www.w3.org/1999/xlink">
    <!-- Generator: Sketch 55.1 (78136) - https://sketchapp.com -->
    <title>GooglePlus</title>
    <desc>Created with Sketch.</desc>
    <g id="Page-1" stroke="none" stroke-width="1" fill="none" fill-rule="evenodd">
        <g id="gplus_icon" fill="#3C476C" fill-rule="nonzero">
            <path d="M17.8125,5.1875 L17.8125,3 L16.25,3 L16.25,5.1875 L14,5.1875 L14,6.75 L16.25,6.75 L16.25,9 L17.8125,9 L17.8125,6.75 L20,6.75 L20,5.1875 L17.8125,5.1875 L17.8125,5.1875 Z M6.084345,4.8118812 L6.084345,7.1881188 C6.084345,7.1881188 8.421939,7.1850297 9.373747,7.1850297 C8.858325,8.7254851 8.056878,9.5643564 6.084345,9.5643564 C4.088138,9.5643564 2.530124,7.9685347 2.530124,6 C2.530124,4.0314653 4.088138,2.4356436 6.084345,2.4356436 C7.139769,2.4356436 7.821396,2.8014653 8.446638,3.3113465 C8.94712,2.817802 8.905313,2.7474653 10.178628,1.5616634 C9.097723,0.5914455 7.661095,0 6.084345,0 C2.72404,0 0,2.6862772 0,6 C0,9.3136634 2.72404,12 6.084345,12 C11.107063,12 12.334715,7.6871287 11.927727,4.8118812 L6.084345,4.8118812 L6.084345,4.8118812 Z" id="GooglePlus"></path>
        </g>
    </g>
</svg>