<?xml version="1.0" encoding="UTF-8"?>
<svg width="14px" height="14px" viewBox="0 0 14 14" version="1.1" xmlns="http://www.w3.org/2000/svg" xmlns:xlink="http://www.w3.org/1999/xlink">
    <!-- Generator: Sketch 55.1 (78136) - https://sketchapp.com -->
    <title>icon</title>
    <desc>Created with Sketch.</desc>
    <g id="Page-1" stroke="none" stroke-width="1" fill="none" fill-rule="evenodd">
        <g id="instagram_icon" fill="#3C476C" fill-rule="nonzero">
            <path d="M12.768,0 L1.232,0 C0.56,0 0,0.56 0,1.232 L0,4.662 L4.662,4.662 C5.362,4.158 6.104,3.724 7,3.724 C7.868,3.724 8.652,4.158 9.338,4.662 L14,4.662 L14,1.232 C14,0.56 13.44,0 12.768,0 L12.768,0 Z M13.062,3.248 C13.062,3.514 12.852,3.738 12.586,3.738 L10.752,3.738 C10.486,3.738 10.262,3.514 10.262,3.248 L10.262,1.414 C10.262,1.148 10.486,0.938 10.752,0.938 L12.586,0.938 C12.852,0.938 13.062,1.148 13.062,1.414 L13.062,3.248 Z M9.338,7.462 C9.338,6.174 8.288,5.138 7,5.138 C5.712,5.138 4.662,6.174 4.662,7.462 C4.662,8.75 5.712,9.8 7,9.8 C8.288,9.8 9.338,8.75 9.338,7.462 L9.338,7.462 Z M10.57,6.538 C10.654,6.818 10.682,7.112 10.682,7.406 C10.682,9.45 9.03,11.102 7,11.102 C4.97,11.102 3.318,9.45 3.318,7.406 C3.318,7.112 3.346,6.818 3.43,6.538 L0,6.538 L0,12.768 C0,13.44 0.56,14 1.232,14 L12.768,14 C13.44,14 14,13.44 14,12.768 L14,6.538 L10.57,6.538 Z" id="icon"></path>
        </g>
    </g>
</svg>