<?xml version="1.0" encoding="UTF-8"?>
<svg width="55px" height="62px" viewBox="0 0 55 62" version="1.1" xmlns="http://www.w3.org/2000/svg" xmlns:xlink="http://www.w3.org/1999/xlink">
    <!-- Generator: Sketch 55.1 (78136) - https://sketchapp.com -->
    <title>Group 34</title>
    <desc>Created with Sketch.</desc>
    <defs>
        <polygon id="path-1" points="0.659555556 0.599615476 22.8709722 0.599615476 22.8709722 22.5119048 0.659555556 22.5119048"></polygon>
    </defs>
    <g id="Page-1" stroke="none" stroke-width="1" fill="none" fill-rule="evenodd">
        <g id="Artboard" transform="translate(-199.000000, -71.000000)">
            <g id="Group-34" transform="translate(201.000000, 72.000000)">
                <polygon id="Fill-1" fill="#3D4562" points="31 0 31 10 42 10"></polygon>
                <g id="Group-33">
                    <path d="M42.1649597,40.3833071 L42.1649597,10.5964262 L30.9841681,0.616390476 L3.10469583,0.616390476 C1.59345972,0.616390476 0.367834722,1.82549762 0.367834722,3.31636667 L0.367834722,58.7043667 L3.68843194,56.0174619 L5.82168194,58.7043667 L9.61412639,55.6521881 L11.7473764,58.7043667 L15.9969458,56.0174619 L18.1979181,58.7043667 L22.4209875,56.0174619 L23.9925847,58.7043667 L27.3168625,56.0174619 L30.2281819,58.7043667 L34.8237236,56.0174619" id="Stroke-2" stroke="#3D4562" stroke-width="3" stroke-linejoin="round"></path>
                    <path d="M12.1113097,21.9700214 L34.1718236,21.9700214" id="Stroke-4" stroke="#3D4562" stroke-width="3" stroke-linecap="round" stroke-linejoin="round"></path>
                    <path d="M12.1113097,16.9622119 L34.1718236,16.9622119" id="Stroke-6" stroke="#3D4562" stroke-width="3" stroke-linecap="round" stroke-linejoin="round"></path>
                    <path d="M12.1113097,26.9250369 L34.1718236,26.9250369" id="Stroke-8" stroke="#3D4562" stroke-width="3" stroke-linecap="round" stroke-linejoin="round"></path>
                    <path d="M12.1113097,31.8803429 L34.1718236,31.8803429" id="Stroke-10" stroke="#3D4562" stroke-width="3" stroke-linecap="round" stroke-linejoin="round"></path>
                    <path d="M27.9207681,37.5324286 L34.1718236,37.5324286" id="Stroke-12" stroke="#3D4562" stroke-width="3" stroke-linecap="round" stroke-linejoin="round"></path>
                    <g id="Group-16" transform="translate(29.444444, 38.488095)">
                        <mask id="mask-2" fill="white">
                            <use xlink:href="#path-1"></use>
                        </mask>
                        <g id="Clip-15"></g>
                        <path d="M15.5025,15.0900202 C15.0976389,16.6121155 14.1811806,17.2947345 13.4833472,17.5997345 C13.2735556,17.6912345 13.057875,17.7551393 12.8399861,17.8059726 L12.8399861,18.7819726 C12.8399861,19.3687345 12.3585694,19.8422107 11.766,19.8422107 C11.1719583,19.8422107 10.6912778,19.3687345 10.6912778,18.7819726 L10.6912778,17.8161393 C9.54588889,17.6062702 8.62648611,17.1567583 8.460125,17.071794 C7.93306944,16.800925 7.72843056,16.1618774 8.00226389,15.6426512 C8.27536111,15.1226988 8.92313889,14.921544 9.45019444,15.1902345 C9.96179167,15.4487583 11.6379167,16.0892583 12.6147361,15.6600798 C12.8642778,15.5511512 13.2198194,15.3165917 13.4229861,14.5533655 C13.6946111,13.5294369 13.3920694,13.213544 11.3986806,12.4437821 C9.94633333,11.8838893 7.95809722,11.1155798 7.88080556,8.94136548 C7.82559722,7.37279405 8.52122222,6.55219881 9.11379167,6.14190119 C9.57533333,5.820925 10.1215278,5.653175 10.6905417,5.57982976 L10.6905417,4.66846071 C10.6905417,4.08387738 11.1719583,3.60894881 11.7652639,3.60894881 C12.3585694,3.60894881 12.83925,4.08460357 12.83925,4.6691869 L12.83925,5.67060357 C13.8609722,5.85287738 14.6824722,6.16005595 14.8591389,6.22977024 C15.4104861,6.44690119 15.6791667,7.06271071 15.4598056,7.60662738 C15.2404444,8.15054405 14.6162222,8.41560357 14.0641389,8.19919881 C12.985,7.77800833 11.0556528,7.38296071 10.3497222,7.87531786 C10.2635972,7.93559167 10.0022778,8.11713929 10.0280417,8.86729405 C10.0530694,9.57169881 10.7369167,9.91155595 12.1811667,10.4699964 C13.7247917,11.0640202 16.3063333,12.0610798 15.5025,15.0900202 M11.7652639,0.599615476 C5.63125,0.599615476 0.659555556,5.50575833 0.659555556,11.5556512 C0.659555556,17.6062702 5.63198611,22.5124131 11.7652639,22.5124131 C17.8985417,22.5124131 22.8709722,17.6069964 22.8709722,11.5556512 C22.8709722,5.50430595 17.8985417,0.599615476 11.7652639,0.599615476" id="Fill-14" fill="#3D4562" mask="url(#mask-2)"></path>
                    </g>
                    <path d="M12.1113097,37.5324286 L14.2828375,37.5324286" id="Stroke-17" stroke="#3D4562" stroke-width="3" stroke-linecap="round" stroke-linejoin="round"></path>
                    <path d="M12.1113097,42.478875 L14.2828375,42.478875" id="Stroke-19" stroke="#3D4562" stroke-width="3" stroke-linecap="round" stroke-linejoin="round"></path>
                    <path d="M19.2750694,37.5324286 L21.4465972,37.5324286" id="Stroke-21" stroke="#3D4562" stroke-width="3" stroke-linecap="round" stroke-linejoin="round"></path>
                    <path d="M19.2750694,42.478875 L21.4465972,42.478875" id="Stroke-23" stroke="#3D4562" stroke-width="3" stroke-linecap="round" stroke-linejoin="round"></path>
                    <path d="M8.25320417,15.7708238 C8.91202361,15.7708238 9.44570417,16.2973119 9.44570417,16.9472524 C9.44570417,17.5971929 8.91202361,18.123681 8.25320417,18.123681 C7.59438472,18.123681 7.06070417,17.5971929 7.06070417,16.9472524 C7.06070417,16.2973119 7.59438472,15.7708238 8.25320417,15.7708238" id="Fill-25" fill="#3D4562"></path>
                    <path d="M8.25320417,20.9200952 C8.91202361,20.9200952 9.44570417,21.4465833 9.44570417,22.0965238 C9.44570417,22.7464643 8.91202361,23.2729524 8.25320417,23.2729524 C7.59438472,23.2729524 7.06070417,22.7464643 7.06070417,22.0965238 C7.06070417,21.4465833 7.59438472,20.9200952 8.25320417,20.9200952" id="Fill-27" fill="#3D4562"></path>
                    <path d="M8.25320417,25.4261798 C8.91202361,25.4261798 9.44570417,25.9526679 9.44570417,26.6026083 C9.44570417,27.2525488 8.91202361,27.7790369 8.25320417,27.7790369 C7.59438472,27.7790369 7.06070417,27.2525488 7.06070417,26.6026083 C7.06070417,25.9526679 7.59438472,25.4261798 8.25320417,25.4261798" id="Fill-29" fill="#3D4562"></path>
                    <path d="M8.25320417,30.5761774 C8.91202361,30.5761774 9.44570417,31.1033917 9.44570417,31.752606 C9.44570417,32.4025464 8.91202361,32.9290345 8.25320417,32.9290345 C7.59438472,32.9290345 7.06070417,32.4025464 7.06070417,31.752606 C7.06070417,31.1033917 7.59438472,30.5761774 8.25320417,30.5761774" id="Fill-31" fill="#3D4562"></path>
                </g>
            </g>
        </g>
    </g>
</svg>