<?xml version="1.0" encoding="UTF-8"?>
<svg width="70px" height="42px" viewBox="0 0 70 42" version="1.1" xmlns="http://www.w3.org/2000/svg" xmlns:xlink="http://www.w3.org/1999/xlink">
    <!-- Generator: Sketch 55.1 (78136) - https://sketchapp.com -->
    <title>Group 5</title>
    <desc>Created with Sketch.</desc>
    <g id="Page-1" stroke="none" stroke-width="1" fill="none" fill-rule="evenodd">
        <g id="Artboard" transform="translate(-85.000000, -82.000000)" fill="#3D4562">
            <g id="Group-5" transform="translate(85.000000, 82.000000)">
                <path d="M52.1942979,29.126087 C49.5353049,29.126087 47.3347589,31.3173913 47.3347589,33.9652174 C47.3347589,36.6130435 49.5353049,38.8043478 52.1942979,38.8043478 C54.9449804,38.8043478 57.1455263,36.6130435 57.1455263,33.9652174 C57.1455263,31.3173913 54.9449804,29.126087 52.1942979,29.126087 L52.1942979,29.126087 Z M23.037064,29.126087 C25.6960571,29.126087 27.896603,31.3173913 27.896603,33.9652174 C27.896603,36.6130435 25.6960571,38.8043478 23.037064,38.8043478 C20.2863816,38.8043478 18.0858356,36.6130435 18.0858356,33.9652174 C18.0858356,31.3173913 20.2863816,29.126087 23.037064,29.126087 L23.037064,29.126087 Z M46.9680013,27.7565217 C48.4350319,26.5695652 50.2688202,25.8391304 52.1942979,25.8391304 C56.1369428,25.8391304 59.4377617,28.6695652 60.171277,32.3217391 L61.7299971,32.3217391 C68.5150137,32.3217391 68.5150137,19.4478261 61.7299971,19.4478261 L46.9680013,19.4478261 L46.9680013,27.7565217 Z M60.3546558,16.1608696 C60.4463452,9.13043478 59.8962088,9.58695652 46.9680013,9.67826087 L46.9680013,16.1608696 L60.3546558,16.1608696 Z M62.1884441,16.1735507 L61.7299971,16.1735507 L62.1884441,16.1735507 Z M62.6468912,16.1735507 L62.2801335,16.1735507 L62.6468912,16.1735507 Z M63.1053383,16.2648551 L62.7385806,16.2648551 L63.1053383,16.2648551 Z M46.9680013,6.4826087 C49.8103731,6.4826087 52.652745,6.39130435 55.311738,6.4826087 C57.6956628,6.66521739 60.2629664,6.93913043 61.9133759,8.85652174 C63.4720959,10.5913043 63.6554748,13.6043478 63.5637853,16.3434783 C72.7327268,18.4434783 72.0909009,35.6086957 61.7299971,35.6086957 L60.171277,35.6086957 C59.4377617,39.2608696 56.1369428,42 52.1942979,42 C48.3433425,42 45.0425236,39.2608696 44.3090082,35.6086957 L30.9223537,35.6086957 C30.1888384,39.2608696 26.8880194,42 23.037064,42 C19.0944192,42 15.7936003,39.2608696 15.0600849,35.6086957 L8,35.6086957 L8,26.5695652 L11.3008189,26.5695652 L11.3008189,32.3217391 L15.0600849,32.3217391 C15.7936003,28.6695652 19.0944192,25.8391304 23.037064,25.8391304 C26.8880194,25.8391304 30.1888384,28.6695652 30.9223537,32.3217391 L43.7588718,32.3217391 L43.7588718,3.19565217 L11.3008189,3.19565217 L11.3008189,5.66086957 L8,5.66086957 L8,0 L46.9680013,0 L46.9680013,6.4826087 Z" id="Fill-1"></path>
                <polygon id="Fill-3" points="14.1324042 9.6539924 14.1324042 3 26 15.5475285 14.1324042 28 14.1324042 21.3460076 0 21.3460076 0 17.6387833 17.6655052 17.6387833 17.6655052 18.9695817 21.0174216 15.5475285 17.6655052 12.0304183 17.6655052 13.3612167 0 13.3612167 0 9.6539924"></polygon>
            </g>
        </g>
    </g>
</svg>