<?xml version="1.0" encoding="UTF-8"?>
<svg width="57px" height="63px" viewBox="0 0 57 63" version="1.1" xmlns="http://www.w3.org/2000/svg" xmlns:xlink="http://www.w3.org/1999/xlink">
    <!-- Generator: Sketch 55.1 (78136) - https://sketchapp.com -->
    <title>Group 3</title>
    <desc>Created with Sketch.</desc>
    <defs>
        <polygon id="path-1" points="0 0 57 0 57 63 0 63"></polygon>
    </defs>
    <g id="Page-1" stroke="none" stroke-width="1" fill="none" fill-rule="evenodd">
        <g id="Artboard" transform="translate(-265.000000, -72.000000)">
            <g id="Group-3" transform="translate(265.000000, 72.000000)">
                <mask id="mask-2" fill="white">
                    <use xlink:href="#path-1"></use>
                </mask>
                <g id="Clip-2"></g>
                <path d="M46.1086906,57.8411023 C41.4300781,59.4860529 36.6409297,60.319475 31.8709409,60.319475 C27.241701,60.319475 23.4422167,59.4984593 21.428991,58.732178 C21.0369574,58.5818409 20.7650393,58.2213238 20.735563,57.8148298 C20.7068237,57.4032273 20.6920856,56.9201052 20.6920856,56.3785997 C20.6920856,52.9427403 18.7289696,50.8927554 15.4408976,50.8927554 C14.7968422,50.8927554 14.112994,50.9693835 13.4107231,51.1204504 C13.0164787,51.2051062 12.227253,51.3474156 11.3562308,51.3474156 C8.44766508,51.3474156 8.05489449,49.9367282 8.05489449,48.5566921 C8.05489449,47.9035285 8.06373736,47.2416074 8.07331713,46.5840651 C8.13374337,41.987107 8.19122199,37.6448463 5.22665147,36.7099831 C5.12422162,36.6756829 4.82209039,36.5611056 4.47500794,36.4297431 C3.48313324,36.0539003 3.09404717,35.9115909 2.89139818,35.8575864 C2.80370643,35.8349628 2.75728139,35.7780391 2.73443732,35.7342516 C2.71085635,35.6897343 2.690223,35.6196743 2.72190993,35.5350184 C3.30406522,33.9593981 5.19643835,31.3409054 6.57739911,29.4288511 C7.17429251,28.6027269 7.69012631,27.8882608 8.05710521,27.3263212 C8.67315814,26.3827005 8.84485711,25.2354679 8.52872468,24.1801891 C7.55158809,20.9180201 8.14258624,17.1428075 10.193394,13.5493131 C12.9273132,8.75750064 17.8874236,4.94360911 23.1386116,3.5956838 C25.4687066,2.99725459 28.1679912,2.68125478 30.9446508,2.68125478 C35.5311502,2.68125478 50.7239293,3.75842736 53.6671296,17.6215509 C55.7975232,27.6547274 52.1955294,32.4450803 48.7114406,37.0785279 C46.8912842,39.4985172 45.1720838,41.7842249 44.4285463,44.6486574 C42.755034,51.0970971 45.0630218,55.7787109 46.1086906,57.8411023 M56.3163046,17.0698283 C55.0517749,11.1125385 51.6878016,6.58272131 46.3172349,3.6051711 C40.9451943,0.625431504 34.9924723,0 30.9446508,0 C27.9424981,0 25.0081407,0.345921275 22.4599217,1.00054445 C16.4320354,2.54770289 10.9656709,6.74546487 7.83603358,12.2298496 C5.42193141,16.4626416 4.74545223,20.977863 5.93408068,24.9435512 C6.02472005,25.2478743 5.97018904,25.5864977 5.78375197,25.8711165 C5.45214453,26.3797813 4.95252265,27.0701643 4.37626261,27.8692862 C2.82212907,30.0185228 0.888489235,32.694669 0.179586216,34.6132915 C-0.105596184,35.3846813 -0.0488544658,36.244376 0.33359945,36.9734379 C0.716790271,37.7010402 1.39621707,38.2396265 2.18396897,38.4454278 C2.34387745,38.4928643 3.10215313,38.7796724 3.50966183,38.9343882 C3.93559317,39.0949424 4.30478278,39.2321433 4.4020543,39.2627945 C5.45877668,39.5963093 5.40056115,43.9487872 5.3659266,46.5490351 C5.35708373,47.2175243 5.34824087,47.8918518 5.34824087,48.5566921 C5.34824087,51.9830642 7.5943286,54.0279406 11.3562308,54.0279406 C12.4240068,54.0279406 13.3746148,53.872495 13.9847724,53.7411325 C14.4932372,53.6309339 14.9965436,53.5725506 15.4408976,53.5725506 C17.2477897,53.5725506 17.9846951,54.3862683 17.9846951,56.3785997 C17.9846951,56.9821375 18.0023808,57.5280217 18.0355416,58.0023863 C18.1379714,59.4422654 19.0871056,60.7106434 20.455539,61.2324445 C21.5424745,61.6469662 25.5785055,63 31.8709409,63 C35.4147523,63 38.9663203,62.5689055 42.4775766,61.7147317 C44.0330566,61.3363343 45.5806255,60.8749087 47.1160403,60.3311517 C47.8190481,60.0822927 48.3835177,59.5444362 48.661331,58.8569724 C48.9406182,58.1651299 48.9089312,57.3886315 48.5721655,56.7237912 C47.6841944,54.97594 45.6053842,50.8825383 47.0504558,45.3164168 C47.6613504,42.9621088 49.1550577,40.9778051 50.882364,38.6796909 C54.3642421,34.0491625 58.6979829,28.2859973 56.3163046,17.0698283 Z M38.9474437,11.9415819 C34.5886481,8.82318189 27.6418407,8.29116373 23.0509199,11.1847879 C21.1614944,12.375808 19.8328539,14.0930079 19.0657353,16.3378472 C18.3244085,18.5038691 20.0133957,20.7421403 22.3228573,20.7421403 C23.7605598,20.7421403 25.1061491,19.8904733 25.5777686,18.5440076 C25.7671533,18.0068809 26.0258071,17.4770521 26.3552038,16.9574404 C27.6595264,14.9052661 30.9940235,14.4761486 32.9851419,15.7065774 C35.4471429,17.2281931 35.8332814,20.483794 34.2577776,22.7527164 C33.9070106,23.2577323 33.4457078,23.7233394 32.8760799,24.148808 L31.1369831,25.4974631 C29.4207304,26.8220351 28.3573759,27.9933508 27.9439719,29.0106804 C27.7575348,29.4726386 27.6027847,30.105368 27.4811953,30.9088687 C27.1923284,32.8136251 28.6786666,34.5337442 30.62336,34.5337442 L30.7781102,34.5337442 C32.2865556,34.5337442 33.5422424,33.4733568 33.8907987,32.0196117 C33.9143797,31.92036 33.9394344,31.8276765 33.9666999,31.7430206 C34.270305,30.7964808 34.8797258,29.9681672 35.8023314,29.2580798 L37.4913186,27.957591 C39.2068344,26.6322892 40.3652497,25.5448996 40.9695122,24.6932326 C42.0011798,23.2891134 42.5192243,21.5624262 42.5192243,19.5117114 C42.5192243,16.1678058 41.329122,13.6449158 38.9474437,11.9415819 M30.4671361,37.7747492 C28.5614987,37.7747492 27.016208,39.3058522 27.016208,41.1930936 C27.016208,43.0810648 28.5614987,44.611438 30.4671361,44.611438 L30.7066303,44.611438 C32.6130047,44.611438 34.1582954,43.0810648 34.1582954,41.1930936 C34.1582954,39.3058522 32.6130047,37.7747492 30.7066303,37.7747492 L30.4671361,37.7747492 Z" id="Fill-1" fill="#3D4562" mask="url(#mask-2)"></path>
            </g>
        </g>
    </g>
</svg>