<?xml version="1.0" encoding="UTF-8"?>
<svg width="39px" height="49px" viewBox="0 0 39 49" version="1.1" xmlns="http://www.w3.org/2000/svg" xmlns:xlink="http://www.w3.org/1999/xlink">
    <!-- Generator: Sketch 55.2 (78181) - https://sketchapp.com -->
    <title>Group</title>
    <desc>Created with Sketch.</desc>
    <g id="Page-1" stroke="none" stroke-width="1" fill="none" fill-rule="evenodd">
        <g id="Artboard" transform="translate(-275.000000, -209.000000)" fill="#3D4562" fill-rule="nonzero">
            <g id="Group" transform="translate(275.000000, 209.000000)">
                <path d="M27.691451,0.00470196973 C27.6731872,0.00976521471 27.6551653,0.0156280491 27.6374399,0.0222727377 L6.98704067,0.0222727377 C3.12266677,0.0222727377 0.00160124117,3.11957112 0.00160124117,6.93850996 L0.00160124117,36.1701857 C-0.000533747058,36.1994895 -0.000533747058,36.2289046 0.00160124117,36.2582084 C0,36.2816547 0,36.3051579 0.00160124117,36.3286042 L0.00160124117,42.0835938 C0.00160124117,43.0948141 0.254252343,44.0229673 0.631759892,44.8642242 C0.641444933,44.894421 0.653482637,44.9238481 0.667767312,44.952247 C0.682291428,44.9890452 0.700377229,45.0244035 0.721778441,45.0578405 C1.84146516,47.3756613 4.20585637,49 6.98706947,49 L32.0303739,49 C34.8202864,49 37.1983316,47.3698044 38.3135246,45.0402134 C38.3278066,45.0118327 38.3398442,44.9824246 38.349532,44.952247 C38.3563434,44.9348743 38.3623507,44.9172105 38.3675358,44.8993094 C38.7559723,44.0423966 38.9976944,43.1012341 38.9976944,42.0834812 L38.9976944,36.363971 C39.0007685,36.3288372 39.0007685,36.2935111 38.9976944,36.2583774 C38.9990593,36.2349311 38.9990593,36.211428 38.9976944,36.1879817 L38.9976944,12.253442 C39.0007685,12.2183083 39.0007685,12.1829822 38.9976944,12.1478484 C38.9977794,12.1419918 38.9977794,12.1361343 38.9976944,12.1302777 C38.9984611,12.1126961 38.9984611,12.0950906 38.9976944,12.0775091 C38.9931053,12.0537201 38.9870938,12.0302146 38.9796907,12.0071134 C38.9800317,11.9953831 38.9800317,11.9836457 38.9796907,11.9719155 C38.9797757,11.9660589 38.9797757,11.9602014 38.9796907,11.9543447 C38.9686178,11.9361657 38.9565996,11.9185531 38.9436833,11.9015761 C38.9179357,11.8374504 38.8814274,11.7779713 38.835661,11.7255868 L28.2673393,0.215607502 C28.255824,0.203408099 28.2438119,0.191666006 28.2313319,0.180409649 C28.2253309,0.180326324 28.2193291,0.180326324 28.2133282,0.180409649 C28.2074478,0.174435566 28.2014454,0.168577463 28.1953245,0.162838881 C28.1894441,0.156864798 28.1834416,0.151006695 28.1773208,0.145268113 C28.1438734,0.118250234 28.1076761,0.0946612728 28.0692985,0.0748724084 C27.9537842,0.0136651231 27.8216646,-0.0109346938 27.6912206,0.00447670347 L27.691451,0.00470196973 Z M6.98689664,1.25425389 L27.1689114,1.25425389 L27.1689114,5.84754548 C27.1689114,9.66614642 30.2720596,12.7637827 34.1364911,12.7637827 L37.7372331,12.7637827 L37.7372331,35.6423868 L1.26200496,35.6423868 L1.26200496,6.93839733 C1.26200496,3.77515224 3.81282819,1.25380336 6.9871847,1.25380336 L6.98689664,1.25425389 Z M28.4294591,2.25736453 L36.6034314,11.1621396 L36.9455019,11.5317171 L34.1369232,11.5317171 C30.9624515,11.5317171 28.429776,9.01098767 28.429776,5.84712311 L28.429776,2.25694215 L28.4294591,2.25736453 Z M17.5915138,8.11766618 C17.567182,8.12215931 17.5431368,8.12802606 17.519499,8.13523694 C17.5134981,8.13515362 17.5074962,8.13515362 17.5014953,8.13523694 C17.4461392,8.13997533 17.391661,8.15180941 17.3394619,8.1704348 C16.6421854,8.41585675 16.1814633,9.02475707 15.9711799,9.71914031 C15.7609024,10.4135235 15.7415909,11.2249889 15.8631577,12.130165 C16.076408,13.7181232 16.7076901,15.608276 17.6995361,17.5154365 C17.2876688,18.9437372 16.7769396,20.4359008 16.1872245,21.915168 C15.5283175,23.5679466 14.7692235,25.2084481 13.9727393,26.6845052 C11.7721963,27.6225702 9.77565689,28.6596961 8.28356703,29.7290913 C8.16953585,29.810694 7.3890275,30.2788536 6.84327024,30.9610161 C6.57040313,31.3021256 6.32695841,31.7207829 6.28515523,32.2281388 C6.25118728,32.6404324 6.40336903,33.0868538 6.69924056,33.4776907 C6.74860054,33.6010582 6.83688765,33.7058438 6.9512925,33.7768443 C7.05110439,33.8656251 7.17719776,33.9211012 7.3113667,33.9352628 C8.15313375,34.2657847 9.09174636,34.1134484 9.92187582,33.65368 C10.8626201,33.1326955 11.746271,32.2552834 12.6224323,31.1370054 C13.4014024,30.1427365 14.1658543,28.9555833 14.8908997,27.652418 C16.2305486,27.0932508 17.6473973,26.5514855 19.0677604,26.0861417 C20.6545066,25.5662272 22.2254671,25.1309565 23.7127176,24.7838212 C25.6283123,26.2129103 27.823267,27.1940012 30.2482083,27.3532644 C30.3633445,27.3726685 30.4817272,27.3605848 30.5902788,27.3183481 C31.364928,27.2410818 31.9897287,26.936015 32.3726748,26.4384018 C32.8038018,25.8781083 32.8214713,25.0696841 32.426686,24.449695 C31.8344936,23.5196833 30.5379384,22.8919788 28.5018772,22.8482209 C27.8232094,22.8336349 27.0611195,22.8994689 26.2153773,23.0242214 C25.531582,23.1335882 24.804693,23.2992039 24.0549321,23.4641551 C22.1096096,21.9027221 20.468017,19.8200229 19.2659453,17.7091655 C19.1984184,17.5905966 19.1326314,17.4758178 19.0679045,17.3571869 C19.4952463,15.7930507 19.7998633,14.304097 19.9320825,13.010224 C20.0668021,11.6921348 20.0417006,10.5749268 19.7340417,9.68405509 C19.5802123,9.2385967 19.3350738,8.82922596 18.9778859,8.54015304 C18.6206981,8.25102943 18.1540361,8.10283803 17.6636439,8.11777881 C17.6396583,8.1164446 17.6156146,8.1164446 17.5916291,8.11777881 L17.5915138,8.11766618 Z M17.6995361,9.3672181 C17.9328008,9.36012221 18.0455127,9.40917394 18.1676325,9.50800951 C18.2897524,9.60685634 18.4259469,9.77649873 18.5277067,10.0711751 C18.7312264,10.660528 18.7968003,11.663357 18.6717364,12.8870033 C18.5895128,13.6914855 18.4234696,14.5994211 18.20364,15.5620401 C17.639856,14.2500331 17.2619739,13.003635 17.1234174,11.9718592 C17.0169506,11.1790346 17.0434867,10.5134854 17.1774285,10.0711751 C17.2994274,9.66831461 17.4638978,9.47298061 17.6995361,9.3672181 Z M18.5637142,19.0288878 C19.6200854,20.7451914 20.9646313,22.4170049 22.5245303,23.8157958 C21.2711265,24.134097 19.9719788,24.4985215 18.6717364,24.9245563 C17.6963098,25.2441528 16.7243976,25.5975955 15.7731679,25.9628648 C16.345081,24.8095015 16.886863,23.5984138 17.3754693,22.3726838 C17.8213161,21.2543495 18.2119937,20.1355083 18.5637142,19.0288878 Z M28.4476068,24.1150057 C30.1964728,24.1707591 31.0974073,24.7098212 31.3461753,25.1005455 C31.5120284,25.3610096 31.4981151,25.5072638 31.364179,25.6812819 C31.230243,25.8553564 30.8808154,26.0706547 30.247949,26.0860854 C30.2236186,26.0905372 30.1995732,26.0963664 30.1759342,26.1035435 C28.4883672,25.9614005 26.8895226,25.3559975 25.4229548,24.4316737 C25.755479,24.3683739 26.0989725,24.288348 26.4131876,24.2380574 C27.1940013,24.1230589 27.8646611,24.0963086 28.447578,24.114893 L28.4476068,24.1150057 Z M12.8924015,28.532308 C12.4677559,29.2090078 12.0428569,29.8329953 11.6141093,30.3802234 C10.7986709,31.4210661 9.98743813,32.1947431 9.29165956,32.580061 C8.63684303,32.9427397 8.17623611,32.9728691 7.70733309,32.7384795 C7.5678029,32.5738099 7.53480858,32.4609515 7.5452997,32.3336761 C7.55826813,32.1762149 7.67064009,31.9612546 7.85136277,31.7353126 C8.21280813,31.2835411 8.79118523,30.8923662 9.03960762,30.7145748 C10.0618151,29.9819527 11.3960484,29.2433609 12.8924015,28.532308 Z M1.2617169,36.8739174 L37.736945,36.8739174 L37.736945,42.0831996 C37.736945,42.7968431 37.5343817,43.4569859 37.2868523,44.0894772 L1.72938127,44.0894772 C1.47645939,43.4527058 1.26128481,42.7908736 1.26128481,42.0831996 L1.26128481,36.8739174 L1.2617169,36.8739174 Z M11.7401641,37.6482702 L11.7401641,43.3148429 L12.4963199,43.3148429 L12.4963199,41.0094117 L13.9726241,41.0094117 C14.7930748,41.009468 15.3690207,40.8506553 15.6830054,40.5166418 C15.9969382,40.1827408 16.1511018,39.7669557 16.1511018,39.2847169 C16.1511018,39.0036409 16.1064584,38.7450353 15.9890684,38.5103642 C15.871667,38.275693 15.7135512,38.0950295 15.520972,37.9647693 C15.3283812,37.8345654 15.0677394,37.7471621 14.7828487,37.7008136 C14.5797092,37.664771 14.3038405,37.647876 13.9186706,37.647876 L11.7402505,37.647876 L11.7401641,37.6482702 Z M17.1412482,37.6482702 L17.1412482,43.3148429 L19.2476823,43.3148429 C19.5985559,43.3148429 19.8954702,43.2737318 20.1659003,43.2092493 C20.4363074,43.1448232 20.6587699,43.0527456 20.8500413,42.9276665 C21.0413012,42.8025874 21.2292196,42.6352709 21.3901526,42.4173258 C21.5510741,42.1994933 21.6653357,41.9404934 21.7682305,41.6077752 C21.871108,41.2751696 21.9302639,40.8944696 21.9302639,40.4638168 C21.9302639,39.9583757 21.8479019,39.5019862 21.6962156,39.1087277 C21.5445178,38.7154128 21.3180974,38.3935636 21.0120747,38.1407586 C20.7772717,37.9447769 20.4983035,37.8107998 20.1658715,37.7360114 C19.9284357,37.6819475 19.590784,37.6479886 19.1396888,37.6479886 L17.1412482,37.6479886 L17.1412482,37.6482702 Z M23.0464939,37.6482702 L23.0464939,43.3148429 L23.8026497,43.3148429 L23.8026497,40.7453996 L26.5212387,40.7453996 L26.5212387,40.0590697 L23.8026497,40.0590697 L23.8026497,38.3167478 L26.9533277,38.3167478 L26.9533277,37.6479886 L23.0465515,37.6479886 L23.0464939,37.6482702 Z M12.4965792,38.3170294 L13.9729122,38.3170294 C14.3211471,38.3170294 14.5637795,38.3367402 14.6930606,38.369967 C14.8935556,38.4240309 15.0384783,38.5354813 15.161157,38.7043184 C15.2838242,38.8732681 15.3772015,39.0654765 15.3772015,39.3026819 C15.3772015,39.630219 15.243542,39.878913 15.0351311,40.0594639 C14.8267144,40.2399585 14.486885,40.3410467 13.9909159,40.3410467 L12.4965792,40.3410467 L12.4965792,38.317142 L12.4965792,38.3170294 Z M17.8977209,38.3170294 L19.1399481,38.3170294 C19.5963436,38.3170857 19.9243913,38.3626458 20.130181,38.44025 C20.4150947,38.5485468 20.6511421,38.7553412 20.8503293,39.0738114 C21.0495051,39.3922816 21.1383887,39.8358308 21.1383887,40.4289005 C21.1383887,40.8570754 21.095923,41.2372685 20.994359,41.5376611 C20.8927835,41.8381662 20.7443005,42.0637141 20.56227,42.2416181 C20.4329947,42.3680488 20.2758122,42.4711081 20.0581661,42.5407717 C19.8405142,42.6104353 19.5405119,42.6463653 19.1579806,42.6463653 L17.8977209,42.6463653 L17.8977209,38.3170294 Z M2.37823497,45.3216836 L36.6394389,45.3216836 C35.6134867,46.7852948 33.9730462,47.7679625 32.0304891,47.7679625 L6.9871847,47.7679625 C5.04497328,47.7679625 3.4043024,46.7851822 2.37823497,45.3216836 Z" id="Shape"></path>
            </g>
        </g>
    </g>
</svg>