<?xml version="1.0" encoding="UTF-8"?>
<svg width="28px" height="13px" viewBox="0 0 28 13" version="1.1" xmlns="http://www.w3.org/2000/svg" xmlns:xlink="http://www.w3.org/1999/xlink">
    <!-- Generator: Sketch 55.1 (78136) - https://sketchapp.com -->
    <title>Group</title>
    <desc>Created with Sketch.</desc>
    <defs>
        <polygon id="path-1" points="0 0 8.46153846 0 8.46153846 4.61538462 0 4.61538462"></polygon>
        <polygon id="path-3" points="0 0 8.46153846 0 8.46153846 4.61538462 0 4.61538462"></polygon>
    </defs>
    <g id="Page-1" stroke="none" stroke-width="1" fill="none" fill-rule="evenodd">
        <g id="Group">
            <g id="select_bg" fill="#FFFFFF" fill-rule="nonzero">
                <rect id="Rectangle" x="0" y="0" width="28" height="13"></rect>
            </g>
            <g id="Group-2-Copy-2" transform="translate(2.000000, 2.000000)">
                <g id="Group-3" transform="translate(0.000000, 5.384615)">
                    <mask id="mask-2" fill="white">
                        <use xlink:href="#path-1"></use>
                    </mask>
                    <g id="Clip-2"></g>
                    <path d="M7.79243327,0 C8.50476934,0 8.67605379,0.440153639 8.17191412,0.978580574 L5.14642857,4.21156441 C4.64261269,4.74999135 3.81889316,4.74999135 3.3147535,4.21156441 L0.289591732,0.978580574 C-0.214224142,0.440153639 -0.0435872749,0 0.668748794,0 L7.79243327,0 Z" id="Fill-1" fill="#D4D9E2" mask="url(#mask-2)"></path>
                </g>
                <g id="Group-3-Copy" transform="translate(4.230769, 1.057692) scale(-1, -1) translate(-4.230769, -1.057692) translate(-0.000000, -1.250000)">
                    <mask id="mask-4" fill="white">
                        <use xlink:href="#path-3"></use>
                    </mask>
                    <g id="Clip-2"></g>
                    <path d="M7.79243327,0 C8.50476934,0 8.67605379,0.440153639 8.17191412,0.978580574 L5.14642857,4.21156441 C4.64261269,4.74999135 3.81889316,4.74999135 3.3147535,4.21156441 L0.289591732,0.978580574 C-0.214224142,0.440153639 -0.0435872749,0 0.668748794,0 L7.79243327,0 Z" id="Fill-1" fill="#D4D9E2" mask="url(#mask-4)"></path>
                </g>
            </g>
        </g>
    </g>
</svg>