<?xml version="1.0" encoding="UTF-8"?>
<svg width="38px" height="38px" viewBox="0 0 38 38" version="1.1" xmlns="http://www.w3.org/2000/svg" xmlns:xlink="http://www.w3.org/1999/xlink">
    <!-- Generator: Sketch 55.1 (78136) - https://sketchapp.com -->
    <title>Fill 1</title>
    <desc>Created with Sketch.</desc>
    <g id="Page-1" stroke="none" stroke-width="1" fill="none" fill-rule="evenodd">
        <g id="Artboard" transform="translate(-354.000000, -247.000000)" fill="#FFFFFF">
            <g id="Group-3" transform="translate(354.000000, 247.000000)">
                <path d="M6.51090343,34.931677 C5.20872274,34.931677 4.14330218,33.8695652 4.14330218,32.5714286 C4.14330218,31.2732919 5.20872274,30.2111801 6.51090343,30.2111801 C7.81308411,30.2111801 8.87850467,31.2732919 8.87850467,32.5714286 C8.87850467,33.8695652 7.81308411,34.931677 6.51090343,34.931677 L6.51090343,34.931677 Z M12.9034268,11.2111801 L12.9034268,16.4037267 C12.9034268,17.2298137 13.6137072,17.9378882 14.4423676,17.9378882 L21.3084112,17.9378882 C22.1370717,17.9378882 22.847352,17.2298137 22.847352,16.4037267 L22.847352,11.2111801 L27.8193146,11.2111801 L27.8193146,27.6149068 C26.3987539,28.0869565 25.0965732,29.0310559 24.5046729,30.3291925 L11.482866,30.3291925 C10.7725857,29.0310559 9.58878505,27.9689441 8.1682243,27.6149068 L8.1682243,11.2111801 L12.9034268,11.2111801 Z M15.8629283,14.9875776 L19.7694704,14.9875776 L19.7694704,11.2111801 L15.8629283,11.2111801 L15.8629283,14.9875776 Z M29.1214953,34.931677 C27.8193146,34.931677 26.7538941,33.8695652 26.7538941,32.5714286 C26.7538941,31.2732919 27.8193146,30.2111801 29.1214953,30.2111801 C30.423676,30.2111801 31.4890966,31.2732919 31.4890966,32.5714286 C31.4890966,33.8695652 30.5420561,34.931677 29.1214953,34.931677 L29.1214953,34.931677 Z M36.5794393,30.3291925 L34.0934579,30.3291925 C33.3831776,29.0310559 32.1993769,27.9689441 30.7788162,27.6149068 L30.7788162,9.79503106 C30.7788162,8.9689441 30.0685358,8.26086957 29.2398754,8.26086957 L21.3084112,8.26086957 L14.3239875,8.26086957 L7.93146417,8.26086957 L7.93146417,1.53416149 C7.93146417,0.708074534 7.2211838,0 6.39252336,0 L1.53894081,0 C0.710280374,0 0,0.708074534 0,1.53416149 C0,2.36024845 0.710280374,3.06832298 1.53894081,3.06832298 L4.97196262,3.06832298 L4.97196262,9.79503106 L4.97196262,27.6149068 C2.72274143,28.2049689 1.06542056,30.2111801 1.06542056,32.689441 C1.06542056,35.6397516 3.43302181,38 6.39252336,38 C9.1152648,38 11.364486,35.9937888 11.7196262,33.3975155 L23.7943925,33.3975155 C24.1495327,35.9937888 26.3987539,38 29.1214953,38 C31.8442368,38 34.0934579,35.9937888 34.4485981,33.3975155 L36.4610592,33.3975155 C37.2897196,33.3975155 38,32.689441 38,31.863354 C38,31.0372671 37.2897196,30.3291925 36.5794393,30.3291925 L36.5794393,30.3291925 Z" id="Fill-1"></path>
            </g>
        </g>
    </g>
</svg>