<?xml version="1.0" encoding="UTF-8"?>
<svg width="16px" height="12px" viewBox="0 0 16 12" version="1.1" xmlns="http://www.w3.org/2000/svg" xmlns:xlink="http://www.w3.org/1999/xlink">
    <!-- Generator: Sketch 55.1 (78136) - https://sketchapp.com -->
    <title>icon</title>
    <desc>Created with Sketch.</desc>
    <g id="Page-1" stroke="none" stroke-width="1" fill="none" fill-rule="evenodd">
        <g id="twitter_icon" fill="#3C476C" fill-rule="nonzero">
            <path d="M14.3264187,3.6288164 C14.2601624,4.8608697 13.892895,6.0775494 13.3302121,7.186198 C11.6685407,10.3958303 8.4740436,12.1740783 4.8017089,11.9865202 C3.0759123,11.8983781 1.3964753,11.3223509 0,10.3489631 C0.2397571,10.3808184 0.4995817,10.4136986 0.7403905,10.4259975 C2.1852435,10.4997909 3.5951348,10.1011558 4.7651836,9.298069 C3.4217193,9.2098438 2.2650011,8.2683113 1.9108937,6.9951785 C2.1094643,7.0445404 2.3090867,7.0743459 2.5097607,7.0845949 C2.7907043,7.0989437 3.0737514,7.0741796 3.3589017,7.0103027 C1.8896893,6.6411135 0.8543419,5.3135775 0.9733533,3.8488972 L0.9754566,3.8097844 C1.4043192,4.0670091 1.8785751,4.2285017 2.3992759,4.2747057 C1.5277934,3.6418928 1.0575736,2.6569816 1.1133131,1.6204923 C1.1427604,1.072913 1.3126794,0.5325082 1.6188636,0.0775032 C3.1402061,2.0966045 5.4651257,3.3919526 8.006324,3.6590107 C7.958742,3.4212591 7.9512949,3.1855574 7.9639151,2.9508806 C8.0564637,1.2299172 9.5559191,-0.0858188 11.3218505,0.004373 C12.1847488,0.0484441 13.0086494,0.4435054 13.5770174,1.1000575 C14.3068057,1.0000593 15.0027693,0.780673 15.6437892,0.4604299 C15.3651196,1.1521615 14.8297805,1.7523436 14.1475742,2.0900933 C14.7928861,2.0642211 15.4043734,1.9189607 16,1.6944498 C15.5449305,2.2987316 14.9736634,2.8186384 14.3284368,3.2171071 C14.3411424,3.3550268 14.3337806,3.4919216 14.3264187,3.6288164 L14.3264187,3.6288164 Z" id="icon"></path>
        </g>
    </g>
</svg>