<?xml version="1.0" encoding="UTF-8"?>
<svg width="19px" height="19px" viewBox="0 0 19 19" version="1.1" xmlns="http://www.w3.org/2000/svg" xmlns:xlink="http://www.w3.org/1999/xlink">
    <!-- Generator: Sketch 55.1 (78136) - https://sketchapp.com -->
    <title>Group 8</title>
    <desc>Created with Sketch.</desc>
    <defs>
        <polygon id="path-1" points="0 0 19 0 19 19 0 19"></polygon>
    </defs>
    <g id="Page-1" stroke="none" stroke-width="1" fill="none" fill-rule="evenodd">
        <g id="Artboard" transform="translate(-368.000000, -275.000000)">
            <g id="Group-8" transform="translate(368.000000, 275.000000)">
                <g id="Group" transform="translate(4.000000, 3.000000)" fill="#FFFFFF">
                    <path d="M8.38977823,7 L2.65675435,7 C1.25847986,7 0.139860265,8.16954249 0,9.59325553 C1.16528344,11.7288609 3.26272799,13 5.49996718,13 C7.78393585,13 9.83478219,11.7288609 11,9.59325553 C10.8602054,8.16954249 9.74152014,7 8.38977823,7 Z" id="Fill-1"></path>
                    <path d="M8,3 C8,4.66149647 6.66156146,6 5,6 C3.33850353,6 2,4.66149647 2,3 C2,1.33843854 3.33850353,0 5,0 C6.66156146,0 8,1.33843854 8,3 Z" id="Fill-3"></path>
                </g>
                <g id="Group-7">
                    <mask id="mask-2" fill="white">
                        <use xlink:href="#path-1"></use>
                    </mask>
                    <g id="Clip-6"></g>
                    <path d="M9.47520221,0.992191176 C4.81202941,0.992191176 0.992191176,4.81202941 0.992191176,9.47520221 C0.992191176,14.1879706 4.81202941,18.0078787 9.47520221,18.0078787 C14.1880404,18.0078787 18.0078088,14.1879706 18.0078088,9.47520221 C18.0078088,4.81202941 14.1880404,0.992191176 9.47520221,0.992191176 M9.47520221,0 C14.7336618,0 19,4.26633824 19,9.47520221 C19,14.7337316 14.7336618,19 9.47520221,19 C4.26633824,19 0,14.7337316 0,9.47520221 C0,4.26633824 4.26633824,0 9.47520221,0" id="Fill-5" fill="#FFFFFF" mask="url(#mask-2)"></path>
                </g>
            </g>
        </g>
    </g>
</svg>