<?xml version="1.0" encoding="UTF-8"?>
<svg width="39px" height="39px" viewBox="0 0 39 39" version="1.1" xmlns="http://www.w3.org/2000/svg" xmlns:xlink="http://www.w3.org/1999/xlink">
    <!-- Generator: Sketch 55.1 (78136) - https://sketchapp.com -->
    <title>Group 11</title>
    <desc>Created with Sketch.</desc>
    <defs>
        <polygon id="path-1" points="0 39 39 39 39 0 0 0"></polygon>
    </defs>
    <g id="Page-1" stroke="none" stroke-width="1" fill="none" fill-rule="evenodd">
        <g id="Artboard" transform="translate(-328.000000, -258.000000)">
            <g id="Group-11" transform="translate(328.000000, 258.000000)">
                <path d="M7.93512566,34 C7.93512566,33.4115178 8.41297487,32.9326183 9.00023378,32.9326183 C9.58749269,32.9326183 10.0648743,33.4115178 10.0648743,34 C10.0648743,34.5884822 9.58749269,35.0673817 9.00023378,35.0673817 C8.41297487,35.0673817 7.93512566,34.5884822 7.93512566,34 Z M7,34 C7,35.1028212 7.89725307,36 9.00023378,36 C10.1027469,36 11,35.1028212 11,34 C11,32.8971788 10.1032145,32 9.00023378,32 C7.89725307,32 7,32.8971788 7,34 Z" id="Fill-1" fill="#FFFFFF"></path>
                <mask id="mask-2" fill="white">
                    <use xlink:href="#path-1"></use>
                </mask>
                <g id="Clip-4"></g>
                <path d="M0.983004073,24.203585 L25.9267324,24.203585 L25.9267324,22.0659242 L0.983004073,22.0659242 L0.983004073,24.203585 Z M24.5795253,34.4453444 L13.9640644,34.4453444 C13.9709454,34.3410207 13.9802839,34.236697 13.9802839,34.1304234 C13.9802839,31.4457944 11.7847443,29.2618217 9.08639815,29.2618217 C6.38756047,29.2618217 4.19202087,31.4457944 4.19202087,34.1304234 C4.19202087,34.236697 4.20135941,34.3405332 4.20824044,34.4453444 L2.33070266,34.4453444 L2.33070266,25.1785728 L24.5800169,25.1785728 L24.5800169,34.4453444 L24.5795253,34.4453444 Z M9.08590665,38.0245247 C6.92919571,38.0245247 5.17453344,36.277834 5.17453344,34.1309109 C5.17453344,31.9839877 6.92919571,30.237297 9.08590665,30.237297 C11.2426176,30.237297 12.9967884,31.9839877 12.9967884,34.1309109 C12.9967884,36.277834 11.2426176,38.0245247 9.08590665,38.0245247 L9.08590665,38.0245247 Z M8.11469862,13.0068249 C8.11912214,10.9067012 8.59293011,5.07042412 13.4799349,2.58908014 C18.3236874,5.04848689 18.8309175,10.8248022 18.8441881,12.9639255 C17.6935818,11.8855889 15.8794478,11.3176585 13.5005779,11.3176585 C11.0882859,11.3176585 9.25891537,11.9021637 8.11469862,13.0068249 L8.11469862,13.0068249 Z M2.17735402,10.7862902 C1.81462552,10.7862902 1.4484565,10.8111524 1.08179598,10.8603892 C1.92521348,6.63820452 6.24305887,3.31252109 11.5522639,2.64611692 C9.64228695,4.09836127 8.29507987,6.25113436 7.61631556,8.97817527 C7.26931512,10.3738703 7.16069317,11.6447669 7.13562657,12.5427307 C5.87836436,11.438557 4.10846552,10.7862902 2.17735402,10.7862902 L2.17735402,10.7862902 Z M25.9178854,10.8472269 C23.5611331,10.557168 21.2992408,11.3005962 19.8281752,12.6694791 C19.8099896,11.7676154 19.7072657,10.4391945 19.3440457,8.97817527 C18.6642983,6.2477219 17.3146337,4.09348633 15.4007248,2.64075449 C20.7236919,3.29302134 25.0656209,6.62016725 25.9178854,10.8472269 L25.9178854,10.8472269 Z M0.491502037,21.0914239 C0.21970141,21.0914239 0,21.3093336 0,21.5789178 L0,24.6915664 C0,24.9611505 0.21970141,25.1790603 0.491502037,25.1790603 L1.34720708,25.1790603 L1.34720708,34.9333258 C1.34720708,35.20291 1.56690849,35.4208197 1.83870912,35.4208197 L4.37141911,35.4208197 C4.94156148,37.4804815 6.83630183,39 9.08590665,39 C11.33502,39 13.2297603,37.4804815 13.7999027,35.4208197 L24.5790338,35.4208197 L24.5790338,38.5125061 C24.5790338,38.7820902 24.7987353,39 25.0705359,39 C25.3423365,39 25.5620379,38.7820902 25.5620379,38.5125061 L25.5620379,25.1785728 L26.417743,25.1785728 C26.6895436,25.1785728 26.909245,24.960663 26.909245,24.6910789 L26.909245,21.5784303 C26.909245,21.3088461 26.6895436,21.0909364 26.417743,21.0909364 L13.9925715,21.0909364 L13.9925715,12.3028837 C15.7619788,12.3686954 17.86315,12.8191398 18.7906144,14.4434695 C18.8781017,14.596055 19.0412804,14.6911164 19.2182211,14.6911164 C19.3951619,14.6911164 19.5583405,14.59703 19.6458279,14.443957 C20.7718591,12.4710691 23.5508116,11.3288709 26.4093874,11.9148386 C26.5617531,11.9460382 26.7239487,11.9031387 26.8404347,11.7973525 C26.9564292,11.6920538 27.0149179,11.5375183 26.9967324,11.3820077 C26.3661353,5.89233885 20.7954512,1.72572843 13.9507938,1.54974313 L13.9507938,0.487493906 C13.9507938,0.217909776 13.7310924,0 13.4592918,0 C13.1874911,0 12.9677897,0.217909776 12.9677897,0.487493906 L12.9677897,1.5516931 C6.14623297,1.75936551 0.617326558,5.92500094 0.00294901222,11.4068699 C-0.0142535591,11.562868 0.0452181874,11.7183785 0.163178676,11.8231897 C0.281139165,11.9280009 0.444809343,11.9689504 0.598157979,11.9362883 C3.37465298,11.3225335 6.24355037,12.4130573 7.41725723,14.3625455 C7.5062191,14.5097686 7.66595726,14.599955 7.83896598,14.599955 C8.0119747,14.599955 8.17220436,14.5092811 8.26067473,14.3625455 C9.20042662,12.80159 11.2696502,12.3672329 13.0090759,12.3028837 L13.0090759,21.0914239 L0.491502037,21.0914239 Z" id="Fill-3" fill="#FFFFFF" mask="url(#mask-2)"></path>
                <path d="M29.9356725,36.2320508 L38.0643275,36.2320508 L38.0643275,18.9841597 L29.9356725,18.9841597 L29.9356725,36.2320508 Z M38.5321637,18 L29.4678363,18 C29.2091228,18 29,18.2199597 29,18.4920799 L29,38.5079201 C29,38.7800403 29.2091228,39 29.4678363,39 C29.7265497,39 29.9356725,38.7800403 29.9356725,38.5079201 L29.9356725,37.2162105 L38.0643275,37.2162105 L38.0643275,38.5079201 C38.0643275,38.7800403 38.2734503,39 38.5321637,39 C38.7908772,39 39,38.7800403 39,38.5079201 L39,18.4920799 C39,18.2199597 38.7908772,18 38.5321637,18 L38.5321637,18 Z" id="Fill-5" fill="#FFFFFF" mask="url(#mask-2)"></path>
                <path d="M31.5517241,23 L36.4482759,23 C36.7533793,23 37,22.7765 37,22.5 C37,22.2235 36.7533793,22 36.4482759,22 L31.5517241,22 C31.2466207,22 31,22.2235 31,22.5 C31,22.7765 31.2466207,23 31.5517241,23" id="Fill-6" fill="#FFFFFF" mask="url(#mask-2)"></path>
                <path d="M36.4482759,24 L31.5517241,24 C31.2466207,24 31,24.2235 31,24.5 C31,24.7765 31.2466207,25 31.5517241,25 L36.4482759,25 C36.7533793,25 37,24.7765 37,24.5 C37,24.2235 36.7533793,24 36.4482759,24" id="Fill-7" fill="#FFFFFF" mask="url(#mask-2)"></path>
                <path d="M36.4482759,27 L31.5517241,27 C31.2466207,27 31,27.2235 31,27.5 C31,27.7765 31.2466207,28 31.5517241,28 L36.4482759,28 C36.7533793,28 37,27.7765 37,27.5 C37,27.2235 36.7533793,27 36.4482759,27" id="Fill-8" fill="#FFFFFF" mask="url(#mask-2)"></path>
                <path d="M36.4482759,29 L31.5517241,29 C31.2466207,29 31,29.223 31,29.5 C31,29.7765 31.2466207,30 31.5517241,30 L36.4482759,30 C36.7533793,30 37,29.7765 37,29.5 C37,29.223 36.7533793,29 36.4482759,29" id="Fill-9" fill="#FFFFFF" mask="url(#mask-2)"></path>
                <path d="M36.4482759,31 L31.5517241,31 C31.2466207,31 31,31.2235 31,31.5 C31,31.777 31.2466207,32 31.5517241,32 L36.4482759,32 C36.7533793,32 37,31.777 37,31.5 C37,31.2235 36.7533793,31 36.4482759,31" id="Fill-10" fill="#FFFFFF" mask="url(#mask-2)"></path>
            </g>
        </g>
    </g>
</svg>