<?xml version="1.0" encoding="UTF-8"?>
<svg width="127px" height="28px" viewBox="0 0 127 28" version="1.1" xmlns="http://www.w3.org/2000/svg" xmlns:xlink="http://www.w3.org/1999/xlink">
    <!-- Generator: Sketch 55.1 (78136) - https://sketchapp.com -->
    <title>Group 22</title>
    <desc>Created with Sketch.</desc>
    <defs>
        <polygon id="path-1" points="0.0001 0.232 26.9571 0.232 26.9571 20.3265 0.0001 20.3265"></polygon>
        <polygon id="path-3" points="0 28 126.076 28 126.076 0.232 0 0.232"></polygon>
    </defs>
    <g id="Page-1" stroke="none" stroke-width="1" fill="none" fill-rule="evenodd">
        <g id="Artboard" transform="translate(-413.000000, -370.000000)">
            <g id="Group-22" transform="translate(413.000000, 369.000000)">
                <polygon id="Fill-1" fill="#FEFEFE" points="42.1251 14.7912 36.4181 7.4732 39.4391 7.4732 43.8031 13.3472 47.9661 7.4732 50.7181 7.4732 45.2471 14.7912 51.8261 23.1832 48.8051 23.1832 43.5351 16.3012 38.4661 23.1832 35.6461 23.1832"></polygon>
                <g id="Group-21" transform="translate(0.000000, 0.768400)">
                    <path d="M65.1183,13.3514 C65.1183,11.8524 64.6703,10.6384 63.7753,9.7094 C62.8803,8.7804 61.6273,8.3164 60.0163,8.3164 C59.3003,8.3164 58.6063,8.4564 57.9353,8.7354 C57.2643,9.0164 56.6763,9.3904 56.1723,9.8604 C55.6693,10.3304 55.2663,10.8674 54.9643,11.4714 C54.6623,12.0754 54.5113,12.7024 54.5113,13.3514 L65.1183,13.3514 Z M54.4443,15.1634 C54.5113,15.9474 54.7013,16.6854 55.0143,17.3794 C55.3273,18.0734 55.7413,18.6714 56.2563,19.1754 C56.7713,19.6784 57.3643,20.0764 58.0353,20.3674 C58.7073,20.6584 59.4343,20.8034 60.2173,20.8034 C61.4033,20.8034 62.4273,20.5294 63.2893,19.9804 C64.1503,19.4324 64.8053,18.8004 65.2523,18.0844 L66.9643,19.4944 C66.0243,20.6804 64.9893,21.5304 63.8593,22.0454 C62.7293,22.5594 61.5153,22.8174 60.2173,22.8174 C59.0543,22.8174 57.9733,22.6104 56.9783,22.1964 C55.9823,21.7824 55.1263,21.2054 54.4103,20.4674 C53.6943,19.7284 53.1293,18.8564 52.7153,17.8494 C52.3013,16.8424 52.0943,15.7464 52.0943,14.5594 C52.0943,13.3734 52.2953,12.2774 52.6983,11.2694 C53.1013,10.2634 53.6603,9.3904 54.3773,8.6514 C55.0933,7.9134 55.9313,7.3374 56.8943,6.9234 C57.8563,6.5094 58.8973,6.3024 60.0163,6.3024 C61.2013,6.3024 62.2653,6.5154 63.2053,6.9394 C64.1453,7.3654 64.9333,7.9304 65.5713,8.6354 C66.2093,9.3404 66.6963,10.1684 67.0323,11.1194 C67.3673,12.0704 67.5353,13.0824 67.5353,14.1574 L67.5353,15.1634 L54.4443,15.1634 Z" id="Fill-2" fill="#FEFEFE"></path>
                    <path d="M78.3775,8.7191 L73.8465,8.7191 L73.8465,17.9841 C73.8465,18.5661 73.9015,19.0411 74.0135,19.4101 C74.1255,19.7791 74.2825,20.0651 74.4835,20.2661 C74.6855,20.4681 74.9255,20.6081 75.2055,20.6861 C75.4845,20.7641 75.7935,20.8031 76.1285,20.8031 C76.5085,20.8031 76.9005,20.7471 77.3035,20.6351 C77.7065,20.5241 78.0755,20.3781 78.4115,20.1991 L78.5115,22.2461 C77.6835,22.6271 76.6875,22.8171 75.5245,22.8171 C75.0995,22.8171 74.6565,22.7611 74.1985,22.6491 C73.7395,22.5371 73.3195,22.3251 72.9395,22.0111 C72.5595,21.6981 72.2455,21.2731 71.9995,20.7361 C71.7535,20.1991 71.6305,19.4941 71.6305,18.6211 L71.6305,8.7191 L68.3075,8.7191 L68.3075,6.7051 L71.6305,6.7051 L71.6305,2.2741 L73.8465,2.2741 L73.8465,6.7051 L78.3775,6.7051 L78.3775,8.7191 Z" id="Fill-4" fill="#FEFEFE"></path>
                    <path d="M93.5499,14.5594 C93.5499,13.6864 93.4099,12.8704 93.1299,12.1094 C92.8499,11.3494 92.4529,10.6884 91.9389,10.1284 C91.4239,9.5694 90.8019,9.1274 90.0759,8.8034 C89.3479,8.4784 88.5259,8.3164 87.6089,8.3164 C86.6909,8.3164 85.8679,8.4784 85.1409,8.8034 C84.4139,9.1274 83.7989,9.5694 83.2949,10.1284 C82.7919,10.6884 82.3999,11.3494 82.1199,12.1094 C81.8399,12.8704 81.6999,13.6864 81.6999,14.5594 C81.6999,15.4324 81.8399,16.2494 82.1199,17.0104 C82.3999,17.7714 82.7919,18.4314 83.2949,18.9904 C83.7989,19.5504 84.4139,19.9924 85.1409,20.3164 C85.8679,20.6414 86.6909,20.8034 87.6089,20.8034 C88.5259,20.8034 89.3479,20.6414 90.0759,20.3164 C90.8019,19.9924 91.4239,19.5504 91.9389,18.9904 C92.4529,18.4314 92.8499,17.7714 93.1299,17.0104 C93.4099,16.2494 93.5499,15.4324 93.5499,14.5594 M95.9669,14.5594 C95.9669,15.7464 95.7589,16.8424 95.3459,17.8494 C94.9309,18.8564 94.3559,19.7284 93.6169,20.4674 C92.8789,21.2054 91.9999,21.7824 90.9819,22.1964 C89.9639,22.6104 88.8389,22.8174 87.6089,22.8174 C86.3999,22.8174 85.2859,22.6104 84.2689,22.1964 C83.2499,21.7824 82.3719,21.2054 81.6329,20.4674 C80.8949,19.7284 80.3189,18.8564 79.9049,17.8494 C79.4899,16.8424 79.2839,15.7464 79.2839,14.5594 C79.2839,13.3734 79.4899,12.2774 79.9049,11.2694 C80.3189,10.2634 80.8949,9.3904 81.6329,8.6514 C82.3719,7.9134 83.2499,7.3374 84.2689,6.9234 C85.2859,6.5094 86.3999,6.3024 87.6089,6.3024 C88.8389,6.3024 89.9639,6.5094 90.9819,6.9234 C91.9999,7.3374 92.8789,7.9134 93.6169,8.6514 C94.3559,9.3904 94.9309,10.2634 95.3459,11.2694 C95.7589,12.2774 95.9669,13.3734 95.9669,14.5594" id="Fill-6" fill="#FEFEFE"></path>
                    <polygon id="Fill-8" fill="#FEFEFE" points="105.5997 22.4144 103.1157 22.4144 96.7377 6.7054 99.3567 6.7054 104.3917 19.9304 104.4587 19.9304 109.4597 6.7054 111.9777 6.7054"></polygon>
                    <path d="M122.4503,14.5931 C121.8903,14.5931 121.1913,14.6211 120.3523,14.6771 C119.5133,14.7331 118.7073,14.8671 117.9353,15.0801 C117.1633,15.2931 116.5033,15.6231 115.9553,16.0701 C115.4063,16.5181 115.1323,17.1331 115.1323,17.9161 C115.1323,18.4311 115.2383,18.8731 115.4513,19.2421 C115.6643,19.6121 115.9493,19.9131 116.3073,20.1491 C116.6653,20.3841 117.0623,20.5511 117.4993,20.6521 C117.9353,20.7531 118.3773,20.8031 118.8253,20.8031 C119.6303,20.8031 120.3293,20.6691 120.9233,20.4001 C121.5153,20.1321 122.0133,19.7681 122.4163,19.3091 C122.8193,18.8511 123.1163,18.3141 123.3063,17.6981 C123.4963,17.0831 123.5913,16.4281 123.5913,15.7351 L123.5913,14.5931 L122.4503,14.5931 Z M123.5913,12.7811 L123.5913,12.3781 C123.5913,9.6701 122.2493,8.3161 119.5633,8.3161 C117.7283,8.3161 116.1283,8.9321 114.7633,10.1621 L113.4203,8.5851 C114.8973,7.0631 117.1133,6.3021 120.0673,6.3021 C120.8273,6.3021 121.5603,6.4141 122.2653,6.6371 C122.9713,6.8621 123.5803,7.2031 124.0953,7.6611 C124.6093,8.1201 125.0233,8.6971 125.3373,9.3901 C125.6503,10.0841 125.8073,10.9121 125.8073,11.8741 L125.8073,18.8901 C125.8073,19.4941 125.8353,20.1271 125.8913,20.7861 C125.9463,21.4471 126.0083,21.9891 126.0753,22.4141 L123.9273,22.4141 C123.8603,22.0341 123.8093,21.6201 123.7763,21.1721 C123.7423,20.7251 123.7253,20.2881 123.7253,19.8631 L123.6583,19.8631 C123.0093,20.9151 122.2433,21.6711 121.3593,22.1291 C120.4753,22.5871 119.3953,22.8171 118.1203,22.8171 C117.4263,22.8171 116.7553,22.7211 116.1063,22.5321 C115.4563,22.3421 114.8813,22.0511 114.3773,21.6591 C113.8743,21.2681 113.4713,20.7861 113.1693,20.2161 C112.8673,19.6451 112.7163,18.9791 112.7163,18.2181 C112.7163,16.9431 113.0453,15.9421 113.7063,15.2141 C114.3663,14.4871 115.1943,13.9441 116.1903,13.5861 C117.1853,13.2281 118.2483,13.0051 119.3793,12.9151 C120.5093,12.8251 121.5443,12.7811 122.4843,12.7811 L123.5913,12.7811 Z" id="Fill-10" fill="#FEFEFE"></path>
                    <g id="Group-14">
                        <mask id="mask-2" fill="white">
                            <use xlink:href="#path-1"></use>
                        </mask>
                        <g id="Clip-13"></g>
                        <polygon id="Fill-12" fill="#FEFEFE" mask="url(#mask-2)" points="13.4791 20.3265 0.0001 12.1865 0.0001 0.2315 2.9061 0.2315 2.9061 10.5475 13.4791 16.9325 24.0501 10.5475 24.0501 0.2315 26.9571 0.2315 26.9571 12.1865"></polygon>
                    </g>
                    <polygon id="Fill-15" fill="#FEFEFE" points="2.9059 27.9998 0.0009 27.9998 0.0009 19.4078 2.9059 21.2458"></polygon>
                    <mask id="mask-4" fill="white">
                        <use xlink:href="#path-3"></use>
                    </mask>
                    <g id="Clip-18"></g>
                    <polygon id="Fill-17" fill="#FEFEFE" mask="url(#mask-4)" points="12.026 27.999 14.931 27.999 14.931 22.284 12.026 22.284"></polygon>
                    <polygon id="Fill-19" fill="#FEFEFE" mask="url(#mask-4)" points="26.9566 27.9998 24.0506 27.9998 24.0506 21.2458 26.9566 19.4078"></polygon>
                    <polygon id="Fill-20" fill="#FEFEFE" mask="url(#mask-4)" points="13.4791 13.9134 5.4911 9.0884 5.4911 2.0504 8.3961 2.0504 8.3961 7.4504 13.4791 10.5194 18.5611 7.4504 18.5611 2.0504 21.4661 2.0504 21.4661 9.0884"></polygon>
                </g>
            </g>
        </g>
    </g>
</svg>